<svg width="76" height="76" viewBox="0 0 76 76" xmlns="http://www.w3.org/2000/svg">
<path fill-rule="evenodd" clip-rule="evenodd" d="M1 1H75V75H1V1ZM0 0H1H75H76V1V75V76H75H1H0V75V1V0ZM46.834 63.69C48.7767 64.31 50.8433 64.62 53.034 64.62C56.0927 64.62 58.7587 64.0827 61.032 63.008C63.3467 61.9333 65.1447 60.4453 66.426 58.544C67.7073 56.6013 68.348 54.3487 68.348 51.786C68.348 50.1327 68.0173 48.6653 67.356 47.384C66.736 46.1027 65.806 44.9867 64.566 44.036C63.3673 43.044 61.9 42.1967 60.164 41.494C58.4693 40.7913 56.5473 40.192 54.398 39.696C52.5793 39.2827 51.0087 38.8487 49.686 38.394C48.4047 37.898 47.3507 37.3607 46.524 36.782C45.7387 36.162 45.16 35.4593 44.788 34.674C44.416 33.8473 44.23 32.9173 44.23 31.884C44.23 30.4787 44.6227 29.2387 45.408 28.164C46.1933 27.048 47.268 26.18 48.632 25.56C50.0373 24.94 51.6493 24.63 53.468 24.63C55.0387 24.63 56.4647 24.8987 57.746 25.436C59.0687 25.932 60.2673 26.676 61.342 27.668C62.458 28.66 63.45 29.838 64.318 31.202L67.728 27.854C66.736 26.242 65.558 24.8573 64.194 23.7C62.83 22.5427 61.2593 21.6747 59.482 21.096C57.746 20.476 55.762 20.166 53.53 20.166C51.546 20.166 49.686 20.4553 47.95 21.034C46.214 21.6127 44.7053 22.4393 43.424 23.514C42.4084 24.333 41.5616 25.2818 40.8836 26.3605C40.8858 26.2586 40.8868 26.1563 40.8868 26.0536C40.8868 23.4909 40.2875 21.1969 39.0888 19.1716C37.8901 17.1463 36.2575 15.5549 34.1908 14.3976C32.1655 13.1989 29.8921 12.5996 27.3708 12.5996H10.3828V55.9996H15.2188V38.8876H27.0785L36.3928 55.1875L36.9828 55.9996H36.9831L37.5104 56.7253L37.5119 56.7243C38.6833 58.363 40.0133 59.7549 41.502 60.9C43.114 62.14 44.8913 63.07 46.834 63.69ZM40.138 36.596C39.631 35.3479 39.3632 33.8974 39.3346 32.2445C39.275 32.3516 39.2138 32.4579 39.1508 32.5636C37.9935 34.5063 36.4228 36.0563 34.4388 37.2136C33.7465 37.603 33.024 37.9245 32.2714 38.178L40.9503 53.1201C42.772 55.6097 44.6299 57.3763 46.524 58.42C48.5907 59.536 50.9053 60.094 53.468 60.094C55.328 60.094 57.0227 59.784 58.552 59.164C60.0813 58.544 61.28 57.676 62.148 56.56C63.016 55.444 63.45 54.1627 63.45 52.716C63.45 51.7653 63.2847 50.918 62.954 50.174C62.6647 49.43 62.21 48.7687 61.59 48.19C60.97 47.6113 60.2053 47.0947 59.296 46.64C58.3867 46.1853 57.3327 45.772 56.134 45.4C54.9767 45.028 53.6747 44.656 52.228 44.284C50.12 43.788 48.26 43.2093 46.648 42.548C45.0773 41.8453 43.734 40.998 42.618 40.006C41.5433 39.014 40.7167 37.8773 40.138 36.596ZM28.1768 34.1756H15.2188V17.3116H26.7508C28.5281 17.3116 30.0988 17.6836 31.4628 18.4276C32.8681 19.1716 33.9635 20.2049 34.7488 21.5276C35.5341 22.8503 35.9268 24.3589 35.9268 26.0536C35.9268 27.6243 35.5961 29.0296 34.9348 30.2696C34.2735 31.4683 33.3641 32.4189 32.2068 33.1216C31.0495 33.8243 29.7061 34.1756 28.1768 34.1756Z" />
</svg>
