<svg width="361" height="243" viewBox="0 0 361 243"  xmlns="http://www.w3.org/2000/svg">
<path d="M177.203 89.1022C177.951 88.4658 179.049 88.4658 179.797 89.1022L355.796 238.975C357.212 240.181 356.359 242.498 354.499 242.498L2.50115 242.498C0.641137 242.498 -0.211645 240.181 1.20448 238.975L177.203 89.1022Z" fill="transparent"/>
<path fill-rule="evenodd" clip-rule="evenodd" d="M359.465 1.99951C358.773 0.804179 357.48 0 356 0H4C1.79086 0 0 1.79086 0 4V239C0 241.209 1.79087 243 4.00001 243H356C358.209 243 360 241.209 360 239V4C360 3.47647 359.899 2.97643 359.717 2.51815L360.334 2.0002L359.465 1.99951ZM8 8V235H352V8.99051L181.5 151.999L9.8191 8H8Z" />
</svg>
