<svg width="48" height="49" viewBox="0 0 48 49" xmlns="http://www.w3.org/2000/svg">
<path d="M24 4.09863C21.3736 4.09863 18.7728 4.61595 16.3463 5.62104C13.9198 6.62614 11.715 8.09933 9.85786 9.9565C6.10714 13.7072 4 18.7943 4 24.0986C4 32.9386 9.74 40.4386 17.68 43.0986C18.68 43.2586 19 42.6386 19 42.0986V38.7186C13.46 39.9186 12.28 36.0386 12.28 36.0386C11.36 33.7186 10.06 33.0986 10.06 33.0986C8.24 31.8586 10.2 31.8986 10.2 31.8986C12.2 32.0386 13.26 33.9586 13.26 33.9586C15 36.9986 17.94 36.0986 19.08 35.6186C19.26 34.3186 19.78 33.4386 20.34 32.9386C15.9 32.4386 11.24 30.7186 11.24 23.0986C11.24 20.8786 12 19.0986 13.3 17.6786C13.1 17.1786 12.4 15.0986 13.5 12.3986C13.5 12.3986 15.18 11.8586 19 14.4386C20.58 13.9986 22.3 13.7786 24 13.7786C25.7 13.7786 27.42 13.9986 29 14.4386C32.82 11.8586 34.5 12.3986 34.5 12.3986C35.6 15.0986 34.9 17.1786 34.7 17.6786C36 19.0986 36.76 20.8786 36.76 23.0986C36.76 30.7386 32.08 32.4186 27.62 32.9186C28.34 33.5386 29 34.7586 29 36.6186V42.0986C29 42.6386 29.32 43.2786 30.34 43.0986C38.28 40.4186 44 32.9386 44 24.0986C44 21.4722 43.4827 18.8715 42.4776 16.445C41.4725 14.0185 39.9993 11.8137 38.1421 9.9565C36.285 8.09933 34.0802 6.62614 31.6537 5.62104C29.2272 4.61595 26.6264 4.09863 24 4.09863Z"/>
</svg>
