<svg width="48" height="49" viewBox="0 0 48 49" xmlns="http://www.w3.org/2000/svg">
<path d="M38 6.09863C39.0609 6.09863 40.0783 6.52006 40.8284 7.27021C41.5786 8.02035 42 9.03777 42 10.0986V38.0986C42 39.1595 41.5786 40.1769 40.8284 40.9271C40.0783 41.6772 39.0609 42.0986 38 42.0986H10C8.93913 42.0986 7.92172 41.6772 7.17157 40.9271C6.42143 40.1769 6 39.1595 6 38.0986V10.0986C6 9.03777 6.42143 8.02035 7.17157 7.27021C7.92172 6.52006 8.93913 6.09863 10 6.09863H38ZM37 37.0986V26.4986C37 24.7694 36.3131 23.111 35.0903 21.8883C33.8676 20.6656 32.2092 19.9786 30.48 19.9786C28.78 19.9786 26.8 21.0186 25.84 22.5786V20.3586H20.26V37.0986H25.84V27.2386C25.84 25.6986 27.08 24.4386 28.62 24.4386C29.3626 24.4386 30.0748 24.7336 30.5999 25.2587C31.125 25.7838 31.42 26.496 31.42 27.2386V37.0986H37ZM13.76 17.2186C14.6511 17.2186 15.5058 16.8646 16.1359 16.2345C16.766 15.6044 17.12 14.7498 17.12 13.8586C17.12 11.9986 15.62 10.4786 13.76 10.4786C12.8636 10.4786 12.0039 10.8347 11.37 11.4686C10.7361 12.1025 10.38 12.9622 10.38 13.8586C10.38 15.7186 11.9 17.2186 13.76 17.2186ZM16.54 37.0986V20.3586H11V37.0986H16.54Z"/>
</svg>
