<svg width="48" height="49" viewBox="0 0 48 49" xmlns="http://www.w3.org/2000/svg">
<path d="M16.42 24.0986L13.76 25.8786V22.3186L16.42 24.0986ZM22.94 19.7386V14.7786L14.62 20.3386L18.32 22.8186L22.94 19.7386ZM33.4 20.3386L25.06 14.7786V19.7386L29.68 22.8186L33.4 20.3386ZM14.62 27.8586L22.94 33.4186V28.4586L18.32 25.3786L14.62 27.8586ZM25.06 28.4586V33.4186L33.4 27.8586L29.68 25.3786L25.06 28.4586ZM24 21.5786L20.24 24.0986L24 26.6186L27.76 24.0986L24 21.5786ZM44 24.0986C44 35.0986 35 44.0986 24 44.0986C13 44.0986 4 35.0986 4 24.0986C4 13.0986 13 4.09863 24 4.09863C35 4.09863 44 13.0986 44 24.0986ZM36.36 20.3386V20.1986L36.34 20.0986L36.32 19.9986C36.3 19.9786 36.3 19.9586 36.28 19.9186L36.26 19.8786L36.22 19.7986L36.2 19.7586L36.16 19.6986L36.12 19.6386L36.06 19.5786L36 19.5386V19.4986L35.92 19.4586L35.9 19.4386L24.6 11.9186C24.4255 11.8017 24.2201 11.7393 24.01 11.7393C23.7999 11.7393 23.5945 11.8017 23.42 11.9186L12.1 19.4386V19.4586L12 19.4986V19.5386L11.94 19.5786L11.88 19.6386L11.86 19.6986L11.8 19.7586L11.78 19.7986L11.74 19.8786L11.72 19.9186L11.68 19.9986V20.0986H11.66L11.64 20.1986V27.9986L11.66 28.0986H11.68V28.1986C11.7 28.2186 11.7 28.2386 11.72 28.2786L11.74 28.3186L11.78 28.3986L11.8 28.4386L11.84 28.4986L11.88 28.5586L11.94 28.6186L12 28.6586V28.6986L12.08 28.7386L12.1 28.7586L23.42 36.2986C23.58 36.4186 23.8 36.4586 24 36.4586C24.2 36.4586 24.42 36.3986 24.6 36.2986L35.9 28.7586L35.92 28.7386L36 28.6986V28.6586L36.06 28.6186L36.12 28.5586L36.16 28.4986L36.2 28.4386L36.22 28.3986L36.26 28.3186L36.28 28.2786L36.32 28.1986V28.0986H36.34L36.36 27.9986V20.3386ZM34.24 25.8786V22.3186L31.58 24.0986L34.24 25.8786Z"/>
</svg>
